ISO-10303-21;
HEADER;
/* Generated by software containing ST-Developer
 * from STEP Tools, Inc. (www.steptools.com) 
 */

FILE_DESCRIPTION(
/* description */ (''),
/* implementation_level */ '2;1');

FILE_NAME(
/* name */ 
'C:/Users/Administrator/Documents/GitHub/Navbot-EN01/Hardware/RebotMod
el/CNC/MotorBase-Aluminum6061.stp',
/* time_stamp */ '2025-10-13T14:40:11+08:00',
/* author */ (''),
/* organization */ (''),
/* preprocessor_version */ 'ST-DEVELOPER v15.2',
/* originating_system */ 'Autodesk Translator Framework v2.0.0.5431',
/* authorisation */ '');

FILE_SCHEMA (('AUTOMOTIVE_DESIGN { 1 0 10303 214 3 1 1 }'));
ENDSEC;

DATA;
#10=SHAPE_REPRESENTATION_RELATIONSHIP('SRR','None',#828,#11);
#11=ADVANCED_BREP_SHAPE_REPRESENTATION($,(#496),#822);
#12=STYLED_ITEM($,(#836),#496);
#13=FACE_BOUND($,#84,.T.);
#14=FACE_BOUND($,#86,.T.);
#15=FACE_BOUND($,#88,.T.);
#16=FACE_BOUND($,#90,.T.);
#17=FACE_BOUND($,#92,.T.);
#18=FACE_BOUND($,#94,.T.);
#19=FACE_BOUND($,#97,.T.);
#20=FACE_BOUND($,#100,.T.);
#21=FACE_BOUND($,#103,.T.);
#22=FACE_BOUND($,#106,.T.);
#23=FACE_BOUND($,#107,.T.);
#24=FACE_BOUND($,#108,.T.);
#25=FACE_BOUND($,#110,.T.);
#26=FACE_BOUND($,#111,.T.);
#27=FACE_BOUND($,#113,.T.);
#28=FACE_BOUND($,#114,.T.);
#29=FACE_BOUND($,#115,.T.);
#30=FACE_BOUND($,#117,.T.);
#31=FACE_BOUND($,#118,.T.);
#32=FACE_BOUND($,#120,.T.);
#33=FACE_BOUND($,#121,.T.);
#34=CYLINDRICAL_SURFACE($,#513,0.35);
#35=CYLINDRICAL_SURFACE($,#515,0.35);
#36=CYLINDRICAL_SURFACE($,#517,0.085);
#37=CYLINDRICAL_SURFACE($,#520,0.085);
#38=CYLINDRICAL_SURFACE($,#523,0.085);
#39=CYLINDRICAL_SURFACE($,#526,0.105);
#40=CYLINDRICAL_SURFACE($,#530,0.105);
#41=CYLINDRICAL_SURFACE($,#534,0.105);
#42=CYLINDRICAL_SURFACE($,#538,0.105);
#43=FACE_OUTER_BOUND($,#72,.T.);
#44=FACE_OUTER_BOUND($,#73,.T.);
#45=FACE_OUTER_BOUND($,#74,.T.);
#46=FACE_OUTER_BOUND($,#75,.T.);
#47=FACE_OUTER_BOUND($,#76,.T.);
#48=FACE_OUTER_BOUND($,#77,.T.);
#49=FACE_OUTER_BOUND($,#78,.T.);
#50=FACE_OUTER_BOUND($,#79,.T.);
#51=FACE_OUTER_BOUND($,#80,.T.);
#52=FACE_OUTER_BOUND($,#81,.T.);
#53=FACE_OUTER_BOUND($,#82,.T.);
#54=FACE_OUTER_BOUND($,#83,.T.);
#55=FACE_OUTER_BOUND($,#85,.T.);
#56=FACE_OUTER_BOUND($,#87,.T.);
#57=FACE_OUTER_BOUND($,#89,.T.);
#58=FACE_OUTER_BOUND($,#91,.T.);
#59=FACE_OUTER_BOUND($,#93,.T.);
#60=FACE_OUTER_BOUND($,#95,.T.);
#61=FACE_OUTER_BOUND($,#96,.T.);
#62=FACE_OUTER_BOUND($,#98,.T.);
#63=FACE_OUTER_BOUND($,#99,.T.);
#64=FACE_OUTER_BOUND($,#101,.T.);
#65=FACE_OUTER_BOUND($,#102,.T.);
#66=FACE_OUTER_BOUND($,#104,.T.);
#67=FACE_OUTER_BOUND($,#105,.T.);
#68=FACE_OUTER_BOUND($,#109,.T.);
#69=FACE_OUTER_BOUND($,#112,.T.);
#70=FACE_OUTER_BOUND($,#116,.T.);
#71=FACE_OUTER_BOUND($,#119,.T.);
#72=EDGE_LOOP($,(#326,#327,#328,#329));
#73=EDGE_LOOP($,(#330,#331,#332,#333,#334));
#74=EDGE_LOOP($,(#335,#336,#337,#338,#339));
#75=EDGE_LOOP($,(#340,#341,#342,#343));
#76=EDGE_LOOP($,(#344,#345,#346,#347));
#77=EDGE_LOOP($,(#348,#349,#350,#351,#352));
#78=EDGE_LOOP($,(#353,#354,#355,#356,#357));
#79=EDGE_LOOP($,(#358,#359,#360,#361));
#80=EDGE_LOOP($,(#362,#363,#364,#365));
#81=EDGE_LOOP($,(#366,#367,#368,#369));
#82=EDGE_LOOP($,(#370,#371,#372,#373));
#83=EDGE_LOOP($,(#374));
#84=EDGE_LOOP($,(#375,#376));
#85=EDGE_LOOP($,(#377));
#86=EDGE_LOOP($,(#378,#379));
#87=EDGE_LOOP($,(#380));
#88=EDGE_LOOP($,(#381));
#89=EDGE_LOOP($,(#382));
#90=EDGE_LOOP($,(#383));
#91=EDGE_LOOP($,(#384));
#92=EDGE_LOOP($,(#385));
#93=EDGE_LOOP($,(#386));
#94=EDGE_LOOP($,(#387));
#95=EDGE_LOOP($,(#388));
#96=EDGE_LOOP($,(#389));
#97=EDGE_LOOP($,(#390));
#98=EDGE_LOOP($,(#391));
#99=EDGE_LOOP($,(#392));
#100=EDGE_LOOP($,(#393));
#101=EDGE_LOOP($,(#394));
#102=EDGE_LOOP($,(#395));
#103=EDGE_LOOP($,(#396));
#104=EDGE_LOOP($,(#397));
#105=EDGE_LOOP($,(#398,#399,#400,#401,#402,#403,#404,#405,#406,#407,#408,
#409));
#106=EDGE_LOOP($,(#410));
#107=EDGE_LOOP($,(#411));
#108=EDGE_LOOP($,(#412));
#109=EDGE_LOOP($,(#413,#414,#415,#416));
#110=EDGE_LOOP($,(#417));
#111=EDGE_LOOP($,(#418));
#112=EDGE_LOOP($,(#419,#420,#421,#422,#423,#424,#425,#426,#427,#428,#429,
#430));
#113=EDGE_LOOP($,(#431));
#114=EDGE_LOOP($,(#432));
#115=EDGE_LOOP($,(#433));
#116=EDGE_LOOP($,(#434,#435,#436,#437));
#117=EDGE_LOOP($,(#438));
#118=EDGE_LOOP($,(#439));
#119=EDGE_LOOP($,(#440,#441,#442,#443));
#120=EDGE_LOOP($,(#444));
#121=EDGE_LOOP($,(#445));
#122=CIRCLE($,#499,0.35);
#123=CIRCLE($,#503,0.35);
#124=CIRCLE($,#505,0.35);
#125=CIRCLE($,#509,0.35);
#126=CIRCLE($,#514,0.35);
#127=CIRCLE($,#516,0.35);
#128=CIRCLE($,#518,0.085);
#129=CIRCLE($,#519,0.085);
#130=CIRCLE($,#521,0.085);
#131=CIRCLE($,#522,0.085);
#132=CIRCLE($,#524,0.085);
#133=CIRCLE($,#525,0.085);
#134=CIRCLE($,#527,0.105);
#135=CIRCLE($,#528,0.105);
#136=CIRCLE($,#531,0.105);
#137=CIRCLE($,#532,0.105);
#138=CIRCLE($,#535,0.105);
#139=CIRCLE($,#536,0.105);
#140=CIRCLE($,#539,0.105);
#141=CIRCLE($,#540,0.105);
#142=LINE($,#691,#182);
#143=LINE($,#693,#183);
#144=LINE($,#696,#184);
#145=LINE($,#700,#185);
#146=LINE($,#701,#186);
#147=LINE($,#703,#187);
#148=LINE($,#704,#188);
#149=LINE($,#708,#189);
#150=LINE($,#710,#190);
#151=LINE($,#711,#191);
#152=LINE($,#712,#192);
#153=LINE($,#714,#193);
#154=LINE($,#719,#194);
#155=LINE($,#721,#195);
#156=LINE($,#724,#196);
#157=LINE($,#728,#197);
#158=LINE($,#729,#198);
#159=LINE($,#731,#199);
#160=LINE($,#732,#200);
#161=LINE($,#736,#201);
#162=LINE($,#738,#202);
#163=LINE($,#739,#203);
#164=LINE($,#740,#204);
#165=LINE($,#742,#205);
#166=LINE($,#746,#206);
#167=LINE($,#748,#207);
#168=LINE($,#749,#208);
#169=LINE($,#751,#209);
#170=LINE($,#752,#210);
#171=LINE($,#755,#211);
#172=LINE($,#757,#212);
#173=LINE($,#758,#213);
#174=LINE($,#806,#214);
#175=LINE($,#808,#215);
#176=LINE($,#809,#216);
#177=LINE($,#812,#217);
#178=LINE($,#813,#218);
#179=LINE($,#816,#219);
#180=LINE($,#817,#220);
#181=LINE($,#819,#221);
#182=VECTOR($,#551,0.7);
#183=VECTOR($,#552,0.6);
#184=VECTOR($,#555,0.6);
#185=VECTOR($,#558,0.225);
#186=VECTOR($,#559,0.6);
#187=VECTOR($,#560,0.225);
#188=VECTOR($,#561,1.2);
#189=VECTOR($,#564,0.225);
#190=VECTOR($,#565,1.2);
#191=VECTOR($,#566,0.225);
#192=VECTOR($,#567,0.6);
#193=VECTOR($,#570,0.7);
#194=VECTOR($,#575,0.7);
#195=VECTOR($,#576,0.6);
#196=VECTOR($,#579,0.6);
#197=VECTOR($,#582,0.225);
#198=VECTOR($,#583,0.6);
#199=VECTOR($,#584,0.225);
#200=VECTOR($,#585,1.2);
#201=VECTOR($,#588,0.225);
#202=VECTOR($,#589,1.2);
#203=VECTOR($,#590,0.225);
#204=VECTOR($,#591,0.6);
#205=VECTOR($,#594,0.7);
#206=VECTOR($,#599,0.94);
#207=VECTOR($,#600,1.2);
#208=VECTOR($,#601,0.94);
#209=VECTOR($,#604,1.02);
#210=VECTOR($,#605,1.02);
#211=VECTOR($,#608,0.94);
#212=VECTOR($,#609,1.2);
#213=VECTOR($,#610,0.94);
#214=VECTOR($,#671,0.5);
#215=VECTOR($,#672,4.3);
#216=VECTOR($,#673,0.5);
#217=VECTOR($,#676,1.2);
#218=VECTOR($,#677,0.5);
#219=VECTOR($,#680,4.3);
#220=VECTOR($,#681,0.5);
#221=VECTOR($,#684,1.2);
#222=VERTEX_POINT($,#689);
#223=VERTEX_POINT($,#690);
#224=VERTEX_POINT($,#692);
#225=VERTEX_POINT($,#694);
#226=VERTEX_POINT($,#698);
#227=VERTEX_POINT($,#699);
#228=VERTEX_POINT($,#702);
#229=VERTEX_POINT($,#706);
#230=VERTEX_POINT($,#707);
#231=VERTEX_POINT($,#709);
#232=VERTEX_POINT($,#717);
#233=VERTEX_POINT($,#718);
#234=VERTEX_POINT($,#720);
#235=VERTEX_POINT($,#722);
#236=VERTEX_POINT($,#726);
#237=VERTEX_POINT($,#727);
#238=VERTEX_POINT($,#730);
#239=VERTEX_POINT($,#734);
#240=VERTEX_POINT($,#735);
#241=VERTEX_POINT($,#737);
#242=VERTEX_POINT($,#745);
#243=VERTEX_POINT($,#747);
#244=VERTEX_POINT($,#754);
#245=VERTEX_POINT($,#756);
#246=VERTEX_POINT($,#760);
#247=VERTEX_POINT($,#763);
#248=VERTEX_POINT($,#766);
#249=VERTEX_POINT($,#768);
#250=VERTEX_POINT($,#771);
#251=VERTEX_POINT($,#773);
#252=VERTEX_POINT($,#776);
#253=VERTEX_POINT($,#778);
#254=VERTEX_POINT($,#781);
#255=VERTEX_POINT($,#783);
#256=VERTEX_POINT($,#787);
#257=VERTEX_POINT($,#789);
#258=VERTEX_POINT($,#793);
#259=VERTEX_POINT($,#795);
#260=VERTEX_POINT($,#799);
#261=VERTEX_POINT($,#801);
#262=VERTEX_POINT($,#805);
#263=VERTEX_POINT($,#807);
#264=VERTEX_POINT($,#811);
#265=VERTEX_POINT($,#815);
#266=EDGE_CURVE($,#222,#223,#142,.T.);
#267=EDGE_CURVE($,#224,#222,#143,.T.);
#268=EDGE_CURVE($,#225,#224,#122,.T.);
#269=EDGE_CURVE($,#223,#225,#144,.T.);
#270=EDGE_CURVE($,#226,#227,#145,.T.);
#271=EDGE_CURVE($,#226,#224,#146,.T.);
#272=EDGE_CURVE($,#228,#222,#147,.T.);
#273=EDGE_CURVE($,#227,#228,#148,.T.);
#274=EDGE_CURVE($,#229,#230,#149,.T.);
#275=EDGE_CURVE($,#231,#229,#150,.T.);
#276=EDGE_CURVE($,#223,#231,#151,.T.);
#277=EDGE_CURVE($,#225,#230,#152,.T.);
#278=EDGE_CURVE($,#230,#226,#153,.T.);
#279=EDGE_CURVE($,#224,#225,#123,.T.);
#280=EDGE_CURVE($,#232,#233,#154,.T.);
#281=EDGE_CURVE($,#234,#232,#155,.T.);
#282=EDGE_CURVE($,#235,#234,#124,.T.);
#283=EDGE_CURVE($,#233,#235,#156,.T.);
#284=EDGE_CURVE($,#236,#237,#157,.T.);
#285=EDGE_CURVE($,#236,#234,#158,.T.);
#286=EDGE_CURVE($,#238,#232,#159,.T.);
#287=EDGE_CURVE($,#237,#238,#160,.T.);
#288=EDGE_CURVE($,#239,#240,#161,.T.);
#289=EDGE_CURVE($,#241,#239,#162,.T.);
#290=EDGE_CURVE($,#233,#241,#163,.T.);
#291=EDGE_CURVE($,#235,#240,#164,.T.);
#292=EDGE_CURVE($,#240,#236,#165,.T.);
#293=EDGE_CURVE($,#234,#235,#125,.T.);
#294=EDGE_CURVE($,#242,#239,#166,.T.);
#295=EDGE_CURVE($,#243,#242,#167,.T.);
#296=EDGE_CURVE($,#241,#243,#168,.T.);
#297=EDGE_CURVE($,#237,#228,#169,.T.);
#298=EDGE_CURVE($,#227,#238,#170,.T.);
#299=EDGE_CURVE($,#244,#229,#171,.T.);
#300=EDGE_CURVE($,#245,#244,#172,.T.);
#301=EDGE_CURVE($,#231,#245,#173,.T.);
#302=EDGE_CURVE($,#246,#246,#126,.T.);
#303=EDGE_CURVE($,#247,#247,#127,.T.);
#304=EDGE_CURVE($,#248,#248,#128,.T.);
#305=EDGE_CURVE($,#249,#249,#129,.T.);
#306=EDGE_CURVE($,#250,#250,#130,.T.);
#307=EDGE_CURVE($,#251,#251,#131,.T.);
#308=EDGE_CURVE($,#252,#252,#132,.T.);
#309=EDGE_CURVE($,#253,#253,#133,.T.);
#310=EDGE_CURVE($,#254,#254,#134,.T.);
#311=EDGE_CURVE($,#255,#255,#135,.T.);
#312=EDGE_CURVE($,#256,#256,#136,.T.);
#313=EDGE_CURVE($,#257,#257,#137,.T.);
#314=EDGE_CURVE($,#258,#258,#138,.T.);
#315=EDGE_CURVE($,#259,#259,#139,.T.);
#316=EDGE_CURVE($,#260,#260,#140,.T.);
#317=EDGE_CURVE($,#261,#261,#141,.T.);
#318=EDGE_CURVE($,#243,#262,#174,.T.);
#319=EDGE_CURVE($,#263,#262,#175,.T.);
#320=EDGE_CURVE($,#244,#263,#176,.T.);
#321=EDGE_CURVE($,#264,#263,#177,.T.);
#322=EDGE_CURVE($,#245,#264,#178,.T.);
#323=EDGE_CURVE($,#265,#264,#179,.T.);
#324=EDGE_CURVE($,#242,#265,#180,.T.);
#325=EDGE_CURVE($,#262,#265,#181,.T.);
#326=ORIENTED_EDGE($,*,*,#266,.F.);
#327=ORIENTED_EDGE($,*,*,#267,.F.);
#328=ORIENTED_EDGE($,*,*,#268,.F.);
#329=ORIENTED_EDGE($,*,*,#269,.F.);
#330=ORIENTED_EDGE($,*,*,#270,.F.);
#331=ORIENTED_EDGE($,*,*,#271,.T.);
#332=ORIENTED_EDGE($,*,*,#267,.T.);
#333=ORIENTED_EDGE($,*,*,#272,.F.);
#334=ORIENTED_EDGE($,*,*,#273,.F.);
#335=ORIENTED_EDGE($,*,*,#274,.F.);
#336=ORIENTED_EDGE($,*,*,#275,.F.);
#337=ORIENTED_EDGE($,*,*,#276,.F.);
#338=ORIENTED_EDGE($,*,*,#269,.T.);
#339=ORIENTED_EDGE($,*,*,#277,.T.);
#340=ORIENTED_EDGE($,*,*,#278,.F.);
#341=ORIENTED_EDGE($,*,*,#277,.F.);
#342=ORIENTED_EDGE($,*,*,#279,.F.);
#343=ORIENTED_EDGE($,*,*,#271,.F.);
#344=ORIENTED_EDGE($,*,*,#280,.F.);
#345=ORIENTED_EDGE($,*,*,#281,.F.);
#346=ORIENTED_EDGE($,*,*,#282,.F.);
#347=ORIENTED_EDGE($,*,*,#283,.F.);
#348=ORIENTED_EDGE($,*,*,#284,.F.);
#349=ORIENTED_EDGE($,*,*,#285,.T.);
#350=ORIENTED_EDGE($,*,*,#281,.T.);
#351=ORIENTED_EDGE($,*,*,#286,.F.);
#352=ORIENTED_EDGE($,*,*,#287,.F.);
#353=ORIENTED_EDGE($,*,*,#288,.F.);
#354=ORIENTED_EDGE($,*,*,#289,.F.);
#355=ORIENTED_EDGE($,*,*,#290,.F.);
#356=ORIENTED_EDGE($,*,*,#283,.T.);
#357=ORIENTED_EDGE($,*,*,#291,.T.);
#358=ORIENTED_EDGE($,*,*,#292,.F.);
#359=ORIENTED_EDGE($,*,*,#291,.F.);
#360=ORIENTED_EDGE($,*,*,#293,.F.);
#361=ORIENTED_EDGE($,*,*,#285,.F.);
#362=ORIENTED_EDGE($,*,*,#289,.T.);
#363=ORIENTED_EDGE($,*,*,#294,.F.);
#364=ORIENTED_EDGE($,*,*,#295,.F.);
#365=ORIENTED_EDGE($,*,*,#296,.F.);
#366=ORIENTED_EDGE($,*,*,#273,.T.);
#367=ORIENTED_EDGE($,*,*,#297,.F.);
#368=ORIENTED_EDGE($,*,*,#287,.T.);
#369=ORIENTED_EDGE($,*,*,#298,.F.);
#370=ORIENTED_EDGE($,*,*,#275,.T.);
#371=ORIENTED_EDGE($,*,*,#299,.F.);
#372=ORIENTED_EDGE($,*,*,#300,.F.);
#373=ORIENTED_EDGE($,*,*,#301,.F.);
#374=ORIENTED_EDGE($,*,*,#302,.F.);
#375=ORIENTED_EDGE($,*,*,#293,.T.);
#376=ORIENTED_EDGE($,*,*,#282,.T.);
#377=ORIENTED_EDGE($,*,*,#303,.F.);
#378=ORIENTED_EDGE($,*,*,#268,.T.);
#379=ORIENTED_EDGE($,*,*,#279,.T.);
#380=ORIENTED_EDGE($,*,*,#304,.F.);
#381=ORIENTED_EDGE($,*,*,#305,.F.);
#382=ORIENTED_EDGE($,*,*,#306,.F.);
#383=ORIENTED_EDGE($,*,*,#307,.F.);
#384=ORIENTED_EDGE($,*,*,#308,.F.);
#385=ORIENTED_EDGE($,*,*,#309,.F.);
#386=ORIENTED_EDGE($,*,*,#310,.F.);
#387=ORIENTED_EDGE($,*,*,#311,.F.);
#388=ORIENTED_EDGE($,*,*,#310,.T.);
#389=ORIENTED_EDGE($,*,*,#312,.F.);
#390=ORIENTED_EDGE($,*,*,#313,.F.);
#391=ORIENTED_EDGE($,*,*,#312,.T.);
#392=ORIENTED_EDGE($,*,*,#314,.T.);
#393=ORIENTED_EDGE($,*,*,#315,.F.);
#394=ORIENTED_EDGE($,*,*,#314,.F.);
#395=ORIENTED_EDGE($,*,*,#316,.T.);
#396=ORIENTED_EDGE($,*,*,#317,.F.);
#397=ORIENTED_EDGE($,*,*,#316,.F.);
#398=ORIENTED_EDGE($,*,*,#270,.T.);
#399=ORIENTED_EDGE($,*,*,#298,.T.);
#400=ORIENTED_EDGE($,*,*,#286,.T.);
#401=ORIENTED_EDGE($,*,*,#280,.T.);
#402=ORIENTED_EDGE($,*,*,#290,.T.);
#403=ORIENTED_EDGE($,*,*,#296,.T.);
#404=ORIENTED_EDGE($,*,*,#318,.T.);
#405=ORIENTED_EDGE($,*,*,#319,.F.);
#406=ORIENTED_EDGE($,*,*,#320,.F.);
#407=ORIENTED_EDGE($,*,*,#299,.T.);
#408=ORIENTED_EDGE($,*,*,#274,.T.);
#409=ORIENTED_EDGE($,*,*,#278,.T.);
#410=ORIENTED_EDGE($,*,*,#304,.T.);
#411=ORIENTED_EDGE($,*,*,#306,.T.);
#412=ORIENTED_EDGE($,*,*,#308,.T.);
#413=ORIENTED_EDGE($,*,*,#300,.T.);
#414=ORIENTED_EDGE($,*,*,#320,.T.);
#415=ORIENTED_EDGE($,*,*,#321,.F.);
#416=ORIENTED_EDGE($,*,*,#322,.F.);
#417=ORIENTED_EDGE($,*,*,#315,.T.);
#418=ORIENTED_EDGE($,*,*,#317,.T.);
#419=ORIENTED_EDGE($,*,*,#276,.T.);
#420=ORIENTED_EDGE($,*,*,#301,.T.);
#421=ORIENTED_EDGE($,*,*,#322,.T.);
#422=ORIENTED_EDGE($,*,*,#323,.F.);
#423=ORIENTED_EDGE($,*,*,#324,.F.);
#424=ORIENTED_EDGE($,*,*,#294,.T.);
#425=ORIENTED_EDGE($,*,*,#288,.T.);
#426=ORIENTED_EDGE($,*,*,#292,.T.);
#427=ORIENTED_EDGE($,*,*,#284,.T.);
#428=ORIENTED_EDGE($,*,*,#297,.T.);
#429=ORIENTED_EDGE($,*,*,#272,.T.);
#430=ORIENTED_EDGE($,*,*,#266,.T.);
#431=ORIENTED_EDGE($,*,*,#305,.T.);
#432=ORIENTED_EDGE($,*,*,#307,.T.);
#433=ORIENTED_EDGE($,*,*,#309,.T.);
#434=ORIENTED_EDGE($,*,*,#295,.T.);
#435=ORIENTED_EDGE($,*,*,#324,.T.);
#436=ORIENTED_EDGE($,*,*,#325,.F.);
#437=ORIENTED_EDGE($,*,*,#318,.F.);
#438=ORIENTED_EDGE($,*,*,#311,.T.);
#439=ORIENTED_EDGE($,*,*,#313,.T.);
#440=ORIENTED_EDGE($,*,*,#325,.T.);
#441=ORIENTED_EDGE($,*,*,#323,.T.);
#442=ORIENTED_EDGE($,*,*,#321,.T.);
#443=ORIENTED_EDGE($,*,*,#319,.T.);
#444=ORIENTED_EDGE($,*,*,#302,.T.);
#445=ORIENTED_EDGE($,*,*,#303,.T.);
#446=PLANE($,#498);
#447=PLANE($,#500);
#448=PLANE($,#501);
#449=PLANE($,#502);
#450=PLANE($,#504);
#451=PLANE($,#506);
#452=PLANE($,#507);
#453=PLANE($,#508);
#454=PLANE($,#510);
#455=PLANE($,#511);
#456=PLANE($,#512);
#457=PLANE($,#529);
#458=PLANE($,#533);
#459=PLANE($,#537);
#460=PLANE($,#541);
#461=PLANE($,#542);
#462=PLANE($,#543);
#463=PLANE($,#544);
#464=PLANE($,#545);
#465=PLANE($,#546);
#466=ADVANCED_FACE($,(#43),#446,.T.);
#467=ADVANCED_FACE($,(#44),#447,.F.);
#468=ADVANCED_FACE($,(#45),#448,.F.);
#469=ADVANCED_FACE($,(#46),#449,.T.);
#470=ADVANCED_FACE($,(#47),#450,.T.);
#471=ADVANCED_FACE($,(#48),#451,.F.);
#472=ADVANCED_FACE($,(#49),#452,.F.);
#473=ADVANCED_FACE($,(#50),#453,.T.);
#474=ADVANCED_FACE($,(#51),#454,.F.);
#475=ADVANCED_FACE($,(#52),#455,.F.);
#476=ADVANCED_FACE($,(#53),#456,.F.);
#477=ADVANCED_FACE($,(#54,#13),#34,.F.);
#478=ADVANCED_FACE($,(#55,#14),#35,.F.);
#479=ADVANCED_FACE($,(#56,#15),#36,.F.);
#480=ADVANCED_FACE($,(#57,#16),#37,.F.);
#481=ADVANCED_FACE($,(#58,#17),#38,.F.);
#482=ADVANCED_FACE($,(#59,#18),#39,.F.);
#483=ADVANCED_FACE($,(#60),#457,.F.);
#484=ADVANCED_FACE($,(#61,#19),#40,.F.);
#485=ADVANCED_FACE($,(#62),#458,.F.);
#486=ADVANCED_FACE($,(#63,#20),#41,.F.);
#487=ADVANCED_FACE($,(#64),#459,.T.);
#488=ADVANCED_FACE($,(#65,#21),#42,.F.);
#489=ADVANCED_FACE($,(#66),#460,.T.);
#490=ADVANCED_FACE($,(#67,#22,#23,#24),#461,.T.);
#491=ADVANCED_FACE($,(#68,#25,#26),#462,.T.);
#492=ADVANCED_FACE($,(#69,#27,#28,#29),#463,.T.);
#493=ADVANCED_FACE($,(#70,#30,#31),#464,.T.);
#494=ADVANCED_FACE($,(#71,#32,#33),#465,.T.);
#495=CLOSED_SHELL($,(#466,#467,#468,#469,#470,#471,#472,#473,#474,#475,
#476,#477,#478,#479,#480,#481,#482,#483,#484,#485,#486,#487,#488,#489,#490,
#491,#492,#493,#494));
#496=MANIFOLD_SOLID_BREP('ASM Body',#495);
#497=AXIS2_PLACEMENT_3D('placement',#687,#547,#548);
#498=AXIS2_PLACEMENT_3D($,#688,#549,#550);
#499=AXIS2_PLACEMENT_3D($,#695,#553,#554);
#500=AXIS2_PLACEMENT_3D($,#697,#556,#557);
#501=AXIS2_PLACEMENT_3D($,#705,#562,#563);
#502=AXIS2_PLACEMENT_3D($,#713,#568,#569);
#503=AXIS2_PLACEMENT_3D($,#715,#571,#572);
#504=AXIS2_PLACEMENT_3D($,#716,#573,#574);
#505=AXIS2_PLACEMENT_3D($,#723,#577,#578);
#506=AXIS2_PLACEMENT_3D($,#725,#580,#581);
#507=AXIS2_PLACEMENT_3D($,#733,#586,#587);
#508=AXIS2_PLACEMENT_3D($,#741,#592,#593);
#509=AXIS2_PLACEMENT_3D($,#743,#595,#596);
#510=AXIS2_PLACEMENT_3D($,#744,#597,#598);
#511=AXIS2_PLACEMENT_3D($,#750,#602,#603);
#512=AXIS2_PLACEMENT_3D($,#753,#606,#607);
#513=AXIS2_PLACEMENT_3D($,#759,#611,#612);
#514=AXIS2_PLACEMENT_3D($,#761,#613,#614);
#515=AXIS2_PLACEMENT_3D($,#762,#615,#616);
#516=AXIS2_PLACEMENT_3D($,#764,#617,#618);
#517=AXIS2_PLACEMENT_3D($,#765,#619,#620);
#518=AXIS2_PLACEMENT_3D($,#767,#621,#622);
#519=AXIS2_PLACEMENT_3D($,#769,#623,#624);
#520=AXIS2_PLACEMENT_3D($,#770,#625,#626);
#521=AXIS2_PLACEMENT_3D($,#772,#627,#628);
#522=AXIS2_PLACEMENT_3D($,#774,#629,#630);
#523=AXIS2_PLACEMENT_3D($,#775,#631,#632);
#524=AXIS2_PLACEMENT_3D($,#777,#633,#634);
#525=AXIS2_PLACEMENT_3D($,#779,#635,#636);
#526=AXIS2_PLACEMENT_3D($,#780,#637,#638);
#527=AXIS2_PLACEMENT_3D($,#782,#639,#640);
#528=AXIS2_PLACEMENT_3D($,#784,#641,#642);
#529=AXIS2_PLACEMENT_3D($,#785,#643,#644);
#530=AXIS2_PLACEMENT_3D($,#786,#645,#646);
#531=AXIS2_PLACEMENT_3D($,#788,#647,#648);
#532=AXIS2_PLACEMENT_3D($,#790,#649,#650);
#533=AXIS2_PLACEMENT_3D($,#791,#651,#652);
#534=AXIS2_PLACEMENT_3D($,#792,#653,#654);
#535=AXIS2_PLACEMENT_3D($,#794,#655,#656);
#536=AXIS2_PLACEMENT_3D($,#796,#657,#658);
#537=AXIS2_PLACEMENT_3D($,#797,#659,#660);
#538=AXIS2_PLACEMENT_3D($,#798,#661,#662);
#539=AXIS2_PLACEMENT_3D($,#800,#663,#664);
#540=AXIS2_PLACEMENT_3D($,#802,#665,#666);
#541=AXIS2_PLACEMENT_3D($,#803,#667,#668);
#542=AXIS2_PLACEMENT_3D($,#804,#669,#670);
#543=AXIS2_PLACEMENT_3D($,#810,#674,#675);
#544=AXIS2_PLACEMENT_3D($,#814,#678,#679);
#545=AXIS2_PLACEMENT_3D($,#818,#682,#683);
#546=AXIS2_PLACEMENT_3D($,#820,#685,#686);
#547=DIRECTION('axis',(0.,0.,1.));
#548=DIRECTION('refdir',(1.,0.,0.));
#549=DIRECTION('center_axis',(0.,-1.,0.));
#550=DIRECTION('ref_axis',(0.,0.,-1.));
#551=DIRECTION($,(-1.,0.,2.32372260968056E-016));
#552=DIRECTION($,(-6.12595819706323E-017,0.,-1.));
#553=DIRECTION('center_axis',(0.,-1.,0.));
#554=DIRECTION('ref_axis',(1.,0.,0.));
#555=DIRECTION($,(1.22519163941265E-016,0.,1.));
#556=DIRECTION('center_axis',(1.,0.,-6.12595819706323E-017));
#557=DIRECTION('ref_axis',(0.,0.,-1.));
#558=DIRECTION($,(0.,-1.,0.));
#559=DIRECTION($,(-6.12595819706323E-017,0.,-1.));
#560=DIRECTION($,(0.,1.,0.));
#561=DIRECTION($,(-6.12595819706323E-017,0.,-1.));
#562=DIRECTION('center_axis',(-1.,0.,1.22519163941265E-016));
#563=DIRECTION('ref_axis',(0.,0.,1.));
#564=DIRECTION($,(0.,1.,0.));
#565=DIRECTION($,(1.22519163941265E-016,0.,1.));
#566=DIRECTION($,(0.,-1.,0.));
#567=DIRECTION($,(1.22519163941265E-016,0.,1.));
#568=DIRECTION('center_axis',(0.,-1.,0.));
#569=DIRECTION('ref_axis',(0.,0.,-1.));
#570=DIRECTION($,(1.,0.,-1.03276560430247E-016));
#571=DIRECTION('center_axis',(0.,-1.,0.));
#572=DIRECTION('ref_axis',(1.,0.,0.));
#573=DIRECTION('center_axis',(0.,-1.,0.));
#574=DIRECTION('ref_axis',(0.,0.,-1.));
#575=DIRECTION($,(1.,0.,-1.03276560430247E-016));
#576=DIRECTION($,(0.,0.,1.));
#577=DIRECTION('center_axis',(0.,-1.,0.));
#578=DIRECTION('ref_axis',(1.,0.,0.));
#579=DIRECTION($,(1.2899594793816E-016,0.,-1.));
#580=DIRECTION('center_axis',(-1.,0.,0.));
#581=DIRECTION('ref_axis',(0.,0.,1.));
#582=DIRECTION($,(0.,-1.,0.));
#583=DIRECTION($,(0.,0.,1.));
#584=DIRECTION($,(0.,1.,0.));
#585=DIRECTION($,(0.,0.,1.));
#586=DIRECTION('center_axis',(1.,0.,1.2899594793816E-016));
#587=DIRECTION('ref_axis',(0.,0.,-1.));
#588=DIRECTION($,(0.,1.,0.));
#589=DIRECTION($,(1.2899594793816E-016,0.,-1.));
#590=DIRECTION($,(0.,-1.,0.));
#591=DIRECTION($,(1.2899594793816E-016,0.,-1.));
#592=DIRECTION('center_axis',(0.,-1.,0.));
#593=DIRECTION('ref_axis',(0.,0.,-1.));
#594=DIRECTION($,(-1.,0.,2.32372260968056E-016));
#595=DIRECTION('center_axis',(0.,-1.,0.));
#596=DIRECTION('ref_axis',(1.,0.,0.));
#597=DIRECTION('center_axis',(0.,1.,0.));
#598=DIRECTION('ref_axis',(0.,0.,1.));
#599=DIRECTION($,(-1.,0.,2.32372260968056E-016));
#600=DIRECTION($,(-3.70074341541719E-016,0.,-1.));
#601=DIRECTION($,(1.,0.,-1.03276560430247E-016));
#602=DIRECTION('center_axis',(0.,1.,0.));
#603=DIRECTION('ref_axis',(0.,0.,1.));
#604=DIRECTION($,(-1.,0.,2.32372260968056E-016));
#605=DIRECTION($,(1.,0.,-1.03276560430247E-016));
#606=DIRECTION('center_axis',(0.,1.,0.));
#607=DIRECTION('ref_axis',(0.,0.,1.));
#608=DIRECTION($,(1.,0.,-1.03276560430247E-016));
#609=DIRECTION($,(0.,0.,1.));
#610=DIRECTION($,(-1.,0.,2.32372260968056E-016));
#611=DIRECTION('center_axis',(0.,1.,0.));
#612=DIRECTION('ref_axis',(1.,0.,0.));
#613=DIRECTION('center_axis',(0.,-1.,0.));
#614=DIRECTION('ref_axis',(1.,0.,0.));
#615=DIRECTION('center_axis',(0.,1.,0.));
#616=DIRECTION('ref_axis',(1.,0.,0.));
#617=DIRECTION('center_axis',(0.,-1.,0.));
#618=DIRECTION('ref_axis',(1.,0.,0.));
#619=DIRECTION('center_axis',(2.46716227694479E-016,0.,1.));
#620=DIRECTION('ref_axis',(-1.,0.,2.46716227694479E-016));
#621=DIRECTION('center_axis',(-1.03276560430247E-016,0.,-1.));
#622=DIRECTION('ref_axis',(-1.,0.,1.03276560430247E-016));
#623=DIRECTION('center_axis',(2.32372260968056E-016,0.,1.));
#624=DIRECTION('ref_axis',(-1.,0.,2.32372260968056E-016));
#625=DIRECTION('center_axis',(2.46716227694479E-016,0.,1.));
#626=DIRECTION('ref_axis',(-1.,0.,2.46716227694479E-016));
#627=DIRECTION('center_axis',(-1.03276560430247E-016,0.,-1.));
#628=DIRECTION('ref_axis',(-1.,0.,1.03276560430247E-016));
#629=DIRECTION('center_axis',(2.32372260968056E-016,0.,1.));
#630=DIRECTION('ref_axis',(-1.,0.,2.32372260968056E-016));
#631=DIRECTION('center_axis',(2.31296463463574E-016,0.,1.));
#632=DIRECTION('ref_axis',(-1.,0.,2.31296463463574E-016));
#633=DIRECTION('center_axis',(-1.03276560430247E-016,0.,-1.));
#634=DIRECTION('ref_axis',(-1.,0.,1.03276560430247E-016));
#635=DIRECTION('center_axis',(2.32372260968056E-016,0.,1.));
#636=DIRECTION('ref_axis',(-1.,0.,2.32372260968056E-016));
#637=DIRECTION('center_axis',(1.,0.,0.));
#638=DIRECTION('ref_axis',(0.,0.,1.));
#639=DIRECTION('center_axis',(1.,0.,0.));
#640=DIRECTION('ref_axis',(0.,0.,1.));
#641=DIRECTION('center_axis',(-1.,0.,3.70074341541719E-016));
#642=DIRECTION('ref_axis',(3.70074341541719E-016,0.,1.));
#643=DIRECTION('center_axis',(-1.,0.,0.));
#644=DIRECTION('ref_axis',(0.,0.,1.));
#645=DIRECTION('center_axis',(1.,0.,0.));
#646=DIRECTION('ref_axis',(0.,0.,1.));
#647=DIRECTION('center_axis',(1.,0.,0.));
#648=DIRECTION('ref_axis',(0.,0.,1.));
#649=DIRECTION('center_axis',(-1.,0.,3.70074341541719E-016));
#650=DIRECTION('ref_axis',(3.70074341541719E-016,0.,1.));
#651=DIRECTION('center_axis',(-1.,0.,0.));
#652=DIRECTION('ref_axis',(0.,0.,1.));
#653=DIRECTION('center_axis',(1.,0.,0.));
#654=DIRECTION('ref_axis',(0.,0.,1.));
#655=DIRECTION('center_axis',(1.,0.,0.));
#656=DIRECTION('ref_axis',(0.,0.,1.));
#657=DIRECTION('center_axis',(1.,0.,0.));
#658=DIRECTION('ref_axis',(0.,0.,1.));
#659=DIRECTION('center_axis',(-1.,0.,0.));
#660=DIRECTION('ref_axis',(0.,0.,1.));
#661=DIRECTION('center_axis',(1.,0.,0.));
#662=DIRECTION('ref_axis',(0.,0.,1.));
#663=DIRECTION('center_axis',(1.,0.,0.));
#664=DIRECTION('ref_axis',(0.,0.,1.));
#665=DIRECTION('center_axis',(1.,0.,0.));
#666=DIRECTION('ref_axis',(0.,0.,1.));
#667=DIRECTION('center_axis',(-1.,0.,0.));
#668=DIRECTION('ref_axis',(0.,0.,1.));
#669=DIRECTION('center_axis',(1.03276560430247E-016,0.,1.));
#670=DIRECTION('ref_axis',(1.,0.,0.));
#671=DIRECTION($,(0.,1.,0.));
#672=DIRECTION($,(1.,0.,-1.03276560430247E-016));
#673=DIRECTION($,(0.,1.,0.));
#674=DIRECTION('center_axis',(-1.,0.,0.));
#675=DIRECTION('ref_axis',(0.,0.,1.));
#676=DIRECTION($,(0.,0.,1.));
#677=DIRECTION($,(0.,1.,0.));
#678=DIRECTION('center_axis',(-2.32372260968056E-016,0.,-1.));
#679=DIRECTION('ref_axis',(-1.,0.,0.));
#680=DIRECTION($,(-1.,0.,2.32372260968056E-016));
#681=DIRECTION($,(0.,1.,0.));
#682=DIRECTION('center_axis',(1.,0.,-3.70074341541719E-016));
#683=DIRECTION('ref_axis',(0.,0.,-1.));
#684=DIRECTION($,(-3.70074341541719E-016,0.,-1.));
#685=DIRECTION('center_axis',(0.,1.,0.));
#686=DIRECTION('ref_axis',(0.,0.,1.));
#687=CARTESIAN_POINT('',(0.,0.,0.));
#688=CARTESIAN_POINT('Origin',(-3.60270355062727,1.64507511478772,0.746918625253844));
#689=CARTESIAN_POINT('',(-3.25270355062727,1.64507511478772,0.6));
#690=CARTESIAN_POINT('',(-3.95270355062728,1.64507511478772,0.6));
#691=CARTESIAN_POINT($,(-2.09770355062728,1.64507511478772,0.6));
#692=CARTESIAN_POINT('',(-3.25270355062727,1.64507511478772,1.2));
#693=CARTESIAN_POINT($,(-3.25270355062727,1.64507511478772,0.293837250507688));
#694=CARTESIAN_POINT('',(-3.95270355062728,1.64507511478772,1.2));
#695=CARTESIAN_POINT('Origin',(-3.60270355062727,1.64507511478772,1.2));
#696=CARTESIAN_POINT($,(-3.95270355062728,1.64507511478772,2.10616274949231));
#697=CARTESIAN_POINT('Origin',(-3.25270355062727,1.42007511478772,2.10616274949231));
#698=CARTESIAN_POINT('',(-3.25270355062727,1.64507511478772,1.8));
#699=CARTESIAN_POINT('',(-3.25270355062727,1.42007511478772,1.8));
#700=CARTESIAN_POINT($,(-3.25270355062727,1.42007511478772,1.8));
#701=CARTESIAN_POINT($,(-3.25270355062727,1.64507511478772,0.293837250507688));
#702=CARTESIAN_POINT('',(-3.25270355062727,1.42007511478772,0.6));
#703=CARTESIAN_POINT($,(-3.25270355062727,1.42007511478772,0.6));
#704=CARTESIAN_POINT($,(-3.25270355062727,1.42007511478772,1.65308137474616));
#705=CARTESIAN_POINT('Origin',(-3.95270355062728,1.42007511478772,1.2));
#706=CARTESIAN_POINT('',(-3.95270355062728,1.42007511478772,1.8));
#707=CARTESIAN_POINT('',(-3.95270355062728,1.64507511478772,1.8));
#708=CARTESIAN_POINT($,(-3.95270355062728,1.42007511478772,1.8));
#709=CARTESIAN_POINT('',(-3.95270355062728,1.42007511478772,0.6));
#710=CARTESIAN_POINT($,(-3.95270355062728,1.42007511478772,1.2));
#711=CARTESIAN_POINT($,(-3.95270355062728,1.42007511478772,0.6));
#712=CARTESIAN_POINT($,(-3.95270355062728,1.64507511478772,2.10616274949231));
#713=CARTESIAN_POINT('Origin',(-3.60270355062727,1.64507511478772,1.65308137474616));
#714=CARTESIAN_POINT($,(-4.24770355062727,1.64507511478772,1.8));
#715=CARTESIAN_POINT('Origin',(-3.60270355062727,1.64507511478772,1.2));
#716=CARTESIAN_POINT('Origin',(-1.88270355062728,1.64507511478772,1.63033251911036));
#717=CARTESIAN_POINT('',(-2.23270355062728,1.64507511478772,1.8));
#718=CARTESIAN_POINT('',(-1.53270355062728,1.64507511478772,1.8));
#719=CARTESIAN_POINT($,(-3.38770355062728,1.64507511478772,1.8));
#720=CARTESIAN_POINT('',(-2.23270355062728,1.64507511478772,1.2));
#721=CARTESIAN_POINT($,(-2.23270355062728,1.64507511478772,2.06066503822073));
#722=CARTESIAN_POINT('',(-1.53270355062728,1.64507511478772,1.2));
#723=CARTESIAN_POINT('Origin',(-1.88270355062728,1.64507511478772,1.2));
#724=CARTESIAN_POINT($,(-1.53270355062728,1.64507511478772,0.339334961779269));
#725=CARTESIAN_POINT('Origin',(-2.23270355062728,1.42007511478772,0.339334961779269));
#726=CARTESIAN_POINT('',(-2.23270355062728,1.64507511478772,0.6));
#727=CARTESIAN_POINT('',(-2.23270355062728,1.42007511478772,0.6));
#728=CARTESIAN_POINT($,(-2.23270355062728,1.42007511478772,0.6));
#729=CARTESIAN_POINT($,(-2.23270355062728,1.64507511478772,2.06066503822073));
#730=CARTESIAN_POINT('',(-2.23270355062728,1.42007511478772,1.8));
#731=CARTESIAN_POINT($,(-2.23270355062728,1.42007511478772,1.8));
#732=CARTESIAN_POINT($,(-2.23270355062728,1.42007511478772,0.769667480889634));
#733=CARTESIAN_POINT('Origin',(-1.53270355062728,1.42007511478772,1.2));
#734=CARTESIAN_POINT('',(-1.53270355062728,1.42007511478772,0.6));
#735=CARTESIAN_POINT('',(-1.53270355062728,1.64507511478772,0.6));
#736=CARTESIAN_POINT($,(-1.53270355062728,1.42007511478772,0.6));
#737=CARTESIAN_POINT('',(-1.53270355062728,1.42007511478772,1.8));
#738=CARTESIAN_POINT($,(-1.53270355062728,1.42007511478772,1.2));
#739=CARTESIAN_POINT($,(-1.53270355062728,1.42007511478772,1.8));
#740=CARTESIAN_POINT($,(-1.53270355062728,1.64507511478772,0.339334961779269));
#741=CARTESIAN_POINT('Origin',(-1.88270355062728,1.64507511478772,0.769667480889634));
#742=CARTESIAN_POINT($,(-1.23770355062727,1.64507511478772,0.599999999999999));
#743=CARTESIAN_POINT('Origin',(-1.88270355062728,1.64507511478772,1.2));
#744=CARTESIAN_POINT('Origin',(-2.74270355062727,1.42007511478772,1.2));
#745=CARTESIAN_POINT('',(-0.592703550627275,1.42007511478772,0.599999999999999));
#746=CARTESIAN_POINT($,(-0.592703550627275,1.42007511478772,0.599999999999999));
#747=CARTESIAN_POINT('',(-0.592703550627275,1.42007511478772,1.8));
#748=CARTESIAN_POINT($,(-0.592703550627275,1.42007511478772,1.8));
#749=CARTESIAN_POINT($,(-4.89270355062727,1.42007511478772,1.8));
#750=CARTESIAN_POINT('Origin',(-2.74270355062727,1.42007511478772,1.2));
#751=CARTESIAN_POINT($,(-0.592703550627275,1.42007511478772,0.599999999999999));
#752=CARTESIAN_POINT($,(-4.89270355062727,1.42007511478772,1.8));
#753=CARTESIAN_POINT('Origin',(-2.74270355062727,1.42007511478772,1.2));
#754=CARTESIAN_POINT('',(-4.89270355062727,1.42007511478772,1.8));
#755=CARTESIAN_POINT($,(-4.89270355062727,1.42007511478772,1.8));
#756=CARTESIAN_POINT('',(-4.89270355062727,1.42007511478772,0.6));
#757=CARTESIAN_POINT($,(-4.89270355062727,1.42007511478772,0.6));
#758=CARTESIAN_POINT($,(-0.592703550627275,1.42007511478772,0.599999999999999));
#759=CARTESIAN_POINT('Origin',(-1.88270355062728,1.42007511478772,1.2));
#760=CARTESIAN_POINT('',(-2.23270355062728,1.92007511478772,1.2));
#761=CARTESIAN_POINT('Origin',(-1.88270355062728,1.92007511478772,1.2));
#762=CARTESIAN_POINT('Origin',(-3.60270355062727,1.42007511478772,1.2));
#763=CARTESIAN_POINT('',(-3.95270355062728,1.92007511478772,1.2));
#764=CARTESIAN_POINT('Origin',(-3.60270355062727,1.92007511478772,1.2));
#765=CARTESIAN_POINT('Origin',(-1.24270355062728,1.67007511478772,0.6));
#766=CARTESIAN_POINT('',(-1.15770355062728,1.67007511478772,1.8));
#767=CARTESIAN_POINT('Origin',(-1.24270355062728,1.67007511478772,1.8));
#768=CARTESIAN_POINT('',(-1.15770355062728,1.67007511478772,0.599999999999999));
#769=CARTESIAN_POINT('Origin',(-1.24270355062728,1.67007511478772,0.599999999999999));
#770=CARTESIAN_POINT('Origin',(-4.24270355062728,1.67007511478772,0.6));
#771=CARTESIAN_POINT('',(-4.15770355062728,1.67007511478772,1.8));
#772=CARTESIAN_POINT('Origin',(-4.24270355062728,1.67007511478772,1.8));
#773=CARTESIAN_POINT('',(-4.15770355062728,1.67007511478772,0.6));
#774=CARTESIAN_POINT('Origin',(-4.24270355062728,1.67007511478772,0.6));
#775=CARTESIAN_POINT('Origin',(-2.74270355062728,1.67007511478772,0.6));
#776=CARTESIAN_POINT('',(-2.65770355062727,1.67007511478772,1.8));
#777=CARTESIAN_POINT('Origin',(-2.74270355062727,1.67007511478772,1.8));
#778=CARTESIAN_POINT('',(-2.65770355062728,1.67007511478772,0.6));
#779=CARTESIAN_POINT('Origin',(-2.74270355062728,1.67007511478772,0.6));
#780=CARTESIAN_POINT('Origin',(-0.592703550627275,1.67007511478772,0.85));
#781=CARTESIAN_POINT('',(-0.992703550627275,1.67007511478772,0.745));
#782=CARTESIAN_POINT('Origin',(-0.992703550627275,1.67007511478772,0.85));
#783=CARTESIAN_POINT('',(-0.592703550627275,1.67007511478772,0.745));
#784=CARTESIAN_POINT('Origin',(-0.592703550627275,1.67007511478772,0.85));
#785=CARTESIAN_POINT('Origin',(-0.992703550627275,1.67007511478772,0.85));
#786=CARTESIAN_POINT('Origin',(-0.592703550627275,1.67007511478772,1.55));
#787=CARTESIAN_POINT('',(-0.992703550627275,1.67007511478772,1.445));
#788=CARTESIAN_POINT('Origin',(-0.992703550627275,1.67007511478772,1.55));
#789=CARTESIAN_POINT('',(-0.592703550627275,1.67007511478772,1.445));
#790=CARTESIAN_POINT('Origin',(-0.592703550627275,1.67007511478772,1.55));
#791=CARTESIAN_POINT('Origin',(-0.992703550627275,1.67007511478772,1.55));
#792=CARTESIAN_POINT('Origin',(-4.89270355062727,1.67007511478772,0.85));
#793=CARTESIAN_POINT('',(-4.49270355062728,1.67007511478772,0.745));
#794=CARTESIAN_POINT('Origin',(-4.49270355062728,1.67007511478772,0.85));
#795=CARTESIAN_POINT('',(-4.89270355062727,1.67007511478772,0.745));
#796=CARTESIAN_POINT('Origin',(-4.89270355062727,1.67007511478772,0.85));
#797=CARTESIAN_POINT('Origin',(-4.49270355062728,1.67007511478772,0.85));
#798=CARTESIAN_POINT('Origin',(-4.89270355062727,1.67007511478772,1.55));
#799=CARTESIAN_POINT('',(-4.49270355062728,1.67007511478772,1.445));
#800=CARTESIAN_POINT('Origin',(-4.49270355062728,1.67007511478772,1.55));
#801=CARTESIAN_POINT('',(-4.89270355062727,1.67007511478772,1.445));
#802=CARTESIAN_POINT('Origin',(-4.89270355062727,1.67007511478772,1.55));
#803=CARTESIAN_POINT('Origin',(-4.49270355062728,1.67007511478772,1.55));
#804=CARTESIAN_POINT('Origin',(-4.89270355062727,1.42007511478772,1.8));
#805=CARTESIAN_POINT('',(-0.592703550627275,1.92007511478772,1.8));
#806=CARTESIAN_POINT($,(-0.592703550627275,1.42007511478772,1.8));
#807=CARTESIAN_POINT('',(-4.89270355062727,1.92007511478772,1.8));
#808=CARTESIAN_POINT($,(-4.89270355062727,1.92007511478772,1.8));
#809=CARTESIAN_POINT($,(-4.89270355062727,1.42007511478772,1.8));
#810=CARTESIAN_POINT('Origin',(-4.89270355062727,1.42007511478772,0.6));
#811=CARTESIAN_POINT('',(-4.89270355062727,1.92007511478772,0.6));
#812=CARTESIAN_POINT($,(-4.89270355062727,1.92007511478772,0.6));
#813=CARTESIAN_POINT($,(-4.89270355062727,1.42007511478772,0.6));
#814=CARTESIAN_POINT('Origin',(-0.592703550627275,1.42007511478772,0.599999999999999));
#815=CARTESIAN_POINT('',(-0.592703550627275,1.92007511478772,0.599999999999999));
#816=CARTESIAN_POINT($,(-0.592703550627275,1.92007511478772,0.599999999999999));
#817=CARTESIAN_POINT($,(-0.592703550627275,1.42007511478772,0.599999999999999));
#818=CARTESIAN_POINT('Origin',(-0.592703550627275,1.42007511478772,1.8));
#819=CARTESIAN_POINT($,(-0.592703550627275,1.92007511478772,1.8));
#820=CARTESIAN_POINT('Origin',(-2.74270355062727,1.92007511478772,1.2));
#821=UNCERTAINTY_MEASURE_WITH_UNIT(LENGTH_MEASURE(0.001),#823,
'DISTANCE_ACCURACY_VALUE',
'Maximum model space distance between geometric entities at asserted c
onnectivities');
#822=(
GEOMETRIC_REPRESENTATION_CONTEXT(3)
GLOBAL_UNCERTAINTY_ASSIGNED_CONTEXT((#821))
GLOBAL_UNIT_ASSIGNED_CONTEXT((#823,#825,#824))
REPRESENTATION_CONTEXT('','3D')
);
#823=(
LENGTH_UNIT()
NAMED_UNIT(*)
SI_UNIT(.CENTI.,.METRE.)
);
#824=(
NAMED_UNIT(*)
SI_UNIT($,.STERADIAN.)
SOLID_ANGLE_UNIT()
);
#825=(
NAMED_UNIT(*)
PLANE_ANGLE_UNIT()
SI_UNIT($,.RADIAN.)
);
#826=SHAPE_DEFINITION_REPRESENTATION(#827,#828);
#827=PRODUCT_DEFINITION_SHAPE('',$,#830);
#828=SHAPE_REPRESENTATION('',(#497),#822);
#829=PRODUCT_DEFINITION_CONTEXT('3D Mechanical Parts',#833,'design');
#830=PRODUCT_DEFINITION('(\X2\672A4FDD5B58\X0\)','(\X2\672A4FDD5B58\X0\)',
#831,#829);
#831=PRODUCT_DEFINITION_FORMATION('',$,#835);
#832=APPLICATION_PROTOCOL_DEFINITION('international standard',
'automotive_design',2009,#833);
#833=APPLICATION_CONTEXT(
'Core Data for Automotive Mechanical Design Process');
#834=PRODUCT_CONTEXT('3D Mechanical Parts',#833,'mechanical');
#835=PRODUCT('(\X2\672A4FDD5B58\X0\)','(\X2\672A4FDD5B58\X0\)',$,(#834));
#836=PRESENTATION_STYLE_ASSIGNMENT((#837));
#837=SURFACE_STYLE_USAGE(.BOTH.,#838);
#838=SURFACE_SIDE_STYLE($,(#839));
#839=SURFACE_STYLE_FILL_AREA(#840);
#840=FILL_AREA_STYLE($,(#841));
#841=FILL_AREA_STYLE_COLOUR($,#842);
#842=COLOUR_RGB('__RGBA_0.74902_0.74902_0.74902',0.749019607843137,0.749019607843137,
0.749019607843137);
ENDSEC;
END-ISO-10303-21;
